<?xml version="1.0" encoding="utf-8"?>
<!-- Generator: Adobe Illustrator 22.0.0, SVG Export Plug-In . SVG Version: 6.00 Build 0)  -->
<svg version="1.1" id="Layer_1" xmlns="http://www.w3.org/2000/svg" xmlns:xlink="http://www.w3.org/1999/xlink" x="0px" y="0px"
	 viewBox="0 0 70 65" style="enable-background:new 0 0 70 65;" xml:space="preserve">
<style type="text/css">
	.st0{fill:url(#SVGID_1_);}
	.st1{fill:url(#SVGID_2_);}
	.st2{fill:url(#SVGID_3_);}
	.st3{fill:url(#SVGID_4_);}
	.st4{fill:url(#SVGID_5_);}
</style>
<g>
	<linearGradient id="SVGID_1_" gradientUnits="userSpaceOnUse" x1="53.5022" y1="7.7096" x2="48.5195" y2="10.494">
		<stop  offset="0" style="stop-color:#FFFFFF"/>
		<stop  offset="1" style="stop-color:#C6C6C6"/>
	</linearGradient>
	<path class="st0" d="M66.4,9l2.4-4.1c0.6-1.1-0.2-2.4-1.4-2.4H47.5h-3.6l7.3,12.8h4.3C60,15.3,64.2,12.9,66.4,9z"/>
	<linearGradient id="SVGID_2_" gradientUnits="userSpaceOnUse" x1="33.2759" y1="24.8164" x2="25.9484" y2="12.3597">
		<stop  offset="0" style="stop-color:#FFFFFF"/>
		<stop  offset="1" style="stop-color:#C6C6C6"/>
	</linearGradient>
	<path class="st1" d="M34.7,38.6l-7-12.1c-2.7-4.8-7.8-7.7-13.3-7.7H8.5l24.7,43.1c0.6,1.1,2.1,1.1,2.8,0l18.8-32.7l1.3-2.3
		l-7.3-12.9L34.7,38.6z"/>
	<linearGradient id="SVGID_3_" gradientUnits="userSpaceOnUse" x1="45.4458" y1="32.6438" x2="36.6529" y2="46.9324">
		<stop  offset="0" style="stop-color:#FFFFFF"/>
		<stop  offset="1" style="stop-color:#C6C6C6"/>
	</linearGradient>
	<path class="st2" d="M54.8,29.3l1.3-2.3l-7.3-12.9L34.7,38.6l5.9,10.4c0.6,1.1,2.2,1.1,2.9,0L54.8,29.3z"/>
	<linearGradient id="SVGID_4_" gradientUnits="userSpaceOnUse" x1="16.735" y1="12.9326" x2="1.4826" y2="12.9326">
		<stop  offset="0" style="stop-color:#FFFFFF"/>
		<stop  offset="1" style="stop-color:#C6C6C6"/>
	</linearGradient>
	<path class="st3" d="M42.3,22.3l5.6-9.7l-1.1-2l0,0l-4.6-8.1H1.9c-1.2,0-2,1.3-1.4,2.4l1.4,2.5c2.8,4.9,8,7.9,13.7,7.9h5.6l0,0
		h13.5l4,7C39.5,23.7,41.5,23.7,42.3,22.3z"/>
	<linearGradient id="SVGID_5_" gradientUnits="userSpaceOnUse" x1="40.5885" y1="20.7613" x2="40.5885" y2="14.8687">
		<stop  offset="0" style="stop-color:#FFFFFF"/>
		<stop  offset="1" style="stop-color:#C6C6C6"/>
	</linearGradient>
	<path class="st4" d="M34.8,15.3l4,7c0.8,1.4,2.8,1.4,3.6,0l4.1-7H34.8z"/>
</g>
</svg>
