<?xml version="1.0" encoding="utf-8"?>
<!-- Generator: Adobe Illustrator 24.2.0, SVG Export Plug-In . SVG Version: 6.00 Build 0)  -->
<svg version="1.1" id="Layer_1" xmlns="http://www.w3.org/2000/svg" xmlns:xlink="http://www.w3.org/1999/xlink" x="0px" y="0px"
	 viewBox="0 0 70 65" style="enable-background:new 0 0 70 65;" xml:space="preserve">
<style type="text/css">
	.st0{fill:url(#SVGID_1_);}
	.st1{fill:url(#SVGID_2_);}
	.st2{fill:url(#SVGID_3_);}
	.st3{fill:url(#SVGID_4_);}
	.st4{fill:url(#SVGID_5_);}
</style>
<g>
	
		<linearGradient id="SVGID_1_" gradientUnits="userSpaceOnUse" x1="53.4964" y1="-717.8094" x2="48.5137" y2="-720.5938" gradientTransform="matrix(1 0 0 -1 0 -710.1102)">
		<stop  offset="0" style="stop-color:#000000"/>
		<stop  offset="1" style="stop-color:#353535"/>
	</linearGradient>
	<path class="st0" d="M66.4,9l2.4-4.1c0.6-1.1-0.2-2.4-1.4-2.4H47.5h-3.6l7.3,12.8h4.3C60,15.3,64.2,12.9,66.4,9z"/>
	
		<linearGradient id="SVGID_2_" gradientUnits="userSpaceOnUse" x1="33.2743" y1="-734.9276" x2="25.9468" y2="-722.471" gradientTransform="matrix(1 0 0 -1 0 -710.1102)">
		<stop  offset="0" style="stop-color:#000000"/>
		<stop  offset="1" style="stop-color:#353535"/>
	</linearGradient>
	<path class="st1" d="M34.7,38.6l-7-12.1c-2.7-4.8-7.8-7.7-13.3-7.7H8.5l24.7,43.1c0.6,1.1,2.1,1.1,2.8,0l18.8-32.7l1.3-2.3L48.8,14
		L34.7,38.6z"/>
	
		<linearGradient id="SVGID_3_" gradientUnits="userSpaceOnUse" x1="45.4683" y1="-742.7679" x2="36.6754" y2="-757.0565" gradientTransform="matrix(1 0 0 -1 0 -710.1102)">
		<stop  offset="0" style="stop-color:#000000"/>
		<stop  offset="1" style="stop-color:#353535"/>
	</linearGradient>
	<path class="st2" d="M54.8,29.3l1.3-2.3l-7.3-12.9L34.7,38.6L40.6,49c0.6,1.1,2.2,1.1,2.9,0L54.8,29.3z"/>
	
		<linearGradient id="SVGID_4_" gradientUnits="userSpaceOnUse" x1="16.735" y1="-723.0352" x2="1.4826" y2="-723.0352" gradientTransform="matrix(1 0 0 -1 0 -710.1102)">
		<stop  offset="0" style="stop-color:#000000"/>
		<stop  offset="1" style="stop-color:#353535"/>
	</linearGradient>
	<path class="st3" d="M42.3,22.3l5.6-9.7l-1.1-2l0,0l-4.6-8.1H1.9c-1.2,0-2,1.3-1.4,2.4l1.4,2.5c2.8,4.9,8,7.9,13.7,7.9h5.6l0,0
		h13.5l4,7C39.5,23.7,41.5,23.7,42.3,22.3z"/>
	
		<linearGradient id="SVGID_5_" gradientUnits="userSpaceOnUse" x1="40.65" y1="-730.8715" x2="40.65" y2="-724.9789" gradientTransform="matrix(1 0 0 -1 0 -710.1102)">
		<stop  offset="0" style="stop-color:#000000"/>
		<stop  offset="1" style="stop-color:#353535"/>
	</linearGradient>
	<path class="st4" d="M34.8,15.3l4,7c0.8,1.4,2.8,1.4,3.6,0l4.1-7C46.5,15.3,34.8,15.3,34.8,15.3z"/>
</g>
</svg>
