<?xml version="1.0" encoding="utf-8"?>
<!-- Generator: Adobe Illustrator 24.0.3, SVG Export Plug-In . SVG Version: 6.00 Build 0)  -->
<svg version="1.1" id="Camada_1" xmlns="http://www.w3.org/2000/svg" xmlns:xlink="http://www.w3.org/1999/xlink" x="0px" y="0px"
	 viewBox="0 0 317.82 75.21" style="enable-background:new 0 0 317.82 75.21;" xml:space="preserve">
<style type="text/css">
	.st0{fill:url(#SVGID_1_);}
	.st1{fill:url(#SVGID_2_);}
	.st2{fill:url(#SVGID_3_);}
	.st3{fill:url(#SVGID_4_);}
	.st4{fill:url(#SVGID_5_);}
	.st5{fill:url(#SVGID_6_);}
	.st6{fill:url(#SVGID_7_);}
	.st7{fill:url(#SVGID_8_);}
	.st8{fill:url(#SVGID_9_);}
	.st9{fill:url(#SVGID_10_);}
	.st10{fill:url(#SVGID_11_);}
</style>
<g>
	<g>
		<linearGradient id="SVGID_1_" gradientUnits="userSpaceOnUse" x1="60.7252" y1="13.856" x2="55.9743" y2="16.5109">
			<stop  offset="0" style="stop-color:#E6282B"/>
			<stop  offset="1" style="stop-color:#A42023"/>
		</linearGradient>
		<path class="st0" d="M73.05,15.07l2.25-3.92c0.58-1.01-0.15-2.27-1.31-2.27H55h-3.39l6.94,12.22h4.08
			C66.93,21.11,70.91,18.81,73.05,15.07z"/>
		<linearGradient id="SVGID_2_" gradientUnits="userSpaceOnUse" x1="41.4401" y1="30.1668" x2="34.4536" y2="18.2898">
			<stop  offset="0" style="stop-color:#E6282B"/>
			<stop  offset="1" style="stop-color:#A42023"/>
		</linearGradient>
		<path class="st1" d="M42.75,43.35L36.12,31.8c-2.61-4.54-7.44-7.34-12.68-7.34h-5.6l23.6,41.1c0.58,1.01,2.04,1.01,2.63,0
			L61.95,34.4l1.26-2.2l-6.98-12.28L42.75,43.35z"/>
		<linearGradient id="SVGID_3_" gradientUnits="userSpaceOnUse" x1="53.0437" y1="37.63" x2="44.6599" y2="51.2537">
			<stop  offset="0" style="stop-color:#E6282B"/>
			<stop  offset="1" style="stop-color:#A42023"/>
		</linearGradient>
		<path class="st2" d="M61.95,34.4l1.26-2.2l-6.98-12.28L42.75,43.35l5.62,9.96c0.6,1.06,2.12,1.06,2.72,0.01L61.95,34.4z"/>
		<linearGradient id="SVGID_4_" gradientUnits="userSpaceOnUse" x1="25.6689" y1="18.836" x2="11.1263" y2="18.836">
			<stop  offset="0" style="stop-color:#E6282B"/>
			<stop  offset="1" style="stop-color:#A42023"/>
		</linearGradient>
		<path class="st3" d="M50.08,27.8l5.37-9.27l-1.08-1.89l0,0l-4.4-7.75H11.52c-1.16,0-1.89,1.26-1.31,2.27l1.37,2.38
			c2.69,4.68,7.67,7.57,13.07,7.57h5.34l-0.01-0.02h12.89l3.81,6.7C47.42,29.11,49.32,29.12,50.08,27.8z"/>
		<linearGradient id="SVGID_5_" gradientUnits="userSpaceOnUse" x1="48.4124" y1="26.3004" x2="48.4124" y2="20.682">
			<stop  offset="0" style="stop-color:#E6282B"/>
			<stop  offset="1" style="stop-color:#A42023"/>
		</linearGradient>
		<path class="st4" d="M42.87,21.11l3.8,6.68c0.75,1.32,2.65,1.33,3.4,0.01l3.88-6.7H42.87z"/>
	</g>
	<g>
		<linearGradient id="SVGID_6_" gradientUnits="userSpaceOnUse" x1="149.0114" y1="37.5828" x2="155.8353" y2="37.5828">
			<stop  offset="0" style="stop-color:#575555"/>
			<stop  offset="1" style="stop-color:#6E6E6E"/>
		</linearGradient>
		<path class="st5" d="M149.01,23.91c0,2.78,0,31.89,0,31.89h6.82V19.37h-2.27C151.4,19.37,149.01,21.14,149.01,23.91z"/>
		<linearGradient id="SVGID_7_" gradientUnits="userSpaceOnUse" x1="232.2178" y1="37.6238" x2="268.6122" y2="37.6238">
			<stop  offset="0" style="stop-color:#575555"/>
			<stop  offset="1" style="stop-color:#6E6E6E"/>
		</linearGradient>
		<path class="st6" d="M253.83,19.75c-1.11-0.21-2.25-0.32-3.41-0.32c-10.05,0-18.2,8.15-18.2,18.2s8.15,18.2,18.2,18.2
			c1.17,0,2.31-0.11,3.41-0.32c8.42-1.6,14.79-8.99,14.79-17.87S262.25,21.35,253.83,19.75z M250.42,49
			c-6.08,0-11.05-4.78-11.36-10.79c-0.01-0.19-0.01-0.39-0.01-0.59c0-0.2,0-0.39,0.01-0.59c0.31-6.01,5.27-10.79,11.36-10.79
			c6.28,0,11.37,5.09,11.37,11.37S256.7,49,250.42,49z"/>
		<linearGradient id="SVGID_8_" gradientUnits="userSpaceOnUse" x1="271.4303" y1="37.6238" x2="307.8247" y2="37.6238">
			<stop  offset="0" style="stop-color:#575555"/>
			<stop  offset="1" style="stop-color:#6E6E6E"/>
		</linearGradient>
		<path class="st7" d="M293.04,19.75c-1.11-0.21-2.25-0.32-3.41-0.32c-10.05,0-18.2,8.15-18.2,18.2s8.15,18.2,18.2,18.2
			c1.17,0,2.31-0.11,3.41-0.32c8.42-1.6,14.79-8.99,14.79-17.87S301.46,21.35,293.04,19.75z M289.63,49
			c-6.08,0-11.05-4.78-11.36-10.79c-0.01-0.19-0.01-0.39-0.01-0.59c0-0.2,0-0.39,0.01-0.59c0.31-6.01,5.27-10.79,11.36-10.79
			c6.28,0,11.37,5.09,11.37,11.37S295.91,49,289.63,49z"/>
		<linearGradient id="SVGID_9_" gradientUnits="userSpaceOnUse" x1="197.866" y1="37.6042" x2="234.2603" y2="37.6042">
			<stop  offset="0" style="stop-color:#575555"/>
			<stop  offset="1" style="stop-color:#6E6E6E"/>
		</linearGradient>
		<path class="st8" d="M216.06,37.6c-0.36,0-0.73,0.01-1.09,0.04c-0.1,0.01-0.21,0.02-0.31,0.02c-0.26,0.02-0.53,0.05-0.79,0.08
			c-0.1,0.01-0.21,0.03-0.31,0.04c-0.29,0.04-0.58,0.09-0.86,0.14c-0.06,0.01-0.12,0.02-0.18,0.03c-0.36,0.07-0.72,0.15-1.07,0.24h0
			l0,0l10.86-18.81l-5.34-0.01c-1.48,0.04-3.05,0.87-3.88,2.31l0,0c-0.86,1.48-8.39,14.53-8.39,14.53V19.37c-0.05,0-0.39,0-2.27,0
			c-2.54,0-4.55,2.14-4.55,4.55c0,1.93,0,21.21,0,28.82v0c0,0.52,0.03,1.03,0.07,1.53c0.04,0.53,0.11,1.06,0.2,1.57h6.56
			c0-0.01,0-0.03,0-0.04c0-6.28,5.09-11.37,11.37-11.37s11.37,5.09,11.37,11.37c0,0.01,0,0.03,0,0.04h6.56h0.27
			c0-0.01,0-0.03,0-0.04c0-0.52-0.03-1.03-0.07-1.53C233.41,44.94,225.6,37.6,216.06,37.6z"/>
		<linearGradient id="SVGID_10_" gradientUnits="userSpaceOnUse" x1="106.5144" y1="37.5881" x2="148.573" y2="37.5881">
			<stop  offset="0" style="stop-color:#575555"/>
			<stop  offset="1" style="stop-color:#6E6E6E"/>
		</linearGradient>
		<path class="st9" d="M139.37,21.64c-0.66,1.14-11.79,20.42-11.82,20.48l0,0c0,0-10.85-18.8-11.7-20.27
			c-0.85-1.48-2.26-2.49-4.06-2.49c-1.8,0-5.27,0.02-5.27,0.02l21.03,36.42l3.95-6.85l17.08-29.58c0,0-3.48-0.02-5.26-0.02
			C141.52,19.37,140.03,20.5,139.37,21.64z"/>
		<linearGradient id="SVGID_11_" gradientUnits="userSpaceOnUse" x1="158.6535" y1="37.5828" x2="195.0478" y2="37.5828">
			<stop  offset="0" style="stop-color:#575555"/>
			<stop  offset="1" style="stop-color:#6E6E6E"/>
		</linearGradient>
		<path class="st10" d="M183.67,33.1c-4.78,0-7.98,1.2-10.78,1.83c-0.74,0.17-1.46,0.29-2.17,0.34c-0.23,0.01-0.47,0.03-0.7,0.03
			l0,0h0c-2.3,0-4.55-1.86-4.55-4.55c0-2.69,2.34-4.6,4.55-4.6c2.21,0,11,0,13.65,0c2.65,0,4.55-2.32,4.55-4.55v-2.23
			c0,0-11.17,0-18.2,0c-5.57,0-9.46,3.81-10.83,8.04c-0.36,1.1-0.55,2.24-0.55,3.34c0,5.32,4.23,11.37,11.37,11.37
			c7.12,0,8.38-2.18,13.58-2.2c0.02,0,0.04,0,0.06,0c2.39,0,4.55,1.91,4.55,4.55s-2.18,4.55-4.55,4.55c-2.37,0-11.21,0-13.65,0
			c-2.44,0-4.55,2.06-4.55,4.55v2.23c0,0,11.74,0,18.2,0c5.21,0,9.41-3.46,10.84-7.95c0.34-1.08,0.53-2.22,0.53-3.38
			C195.05,38.47,190.14,33.1,183.67,33.1z"/>
	</g>
</g>
</svg>
